<svg xmlns="http://www.w3.org/2000/svg" version="1.1" xmlns:xlink="http://www.w3.org/1999/xlink" xmlns:svgjs="http://svgjs.dev/svgjs" width="1440" height="560" preserveAspectRatio="none" viewBox="0 0 1440 560"><g mask="url(&quot;#SvgjsMask1006&quot;)" fill="none"><rect width="1440" height="560" x="0" y="0" fill="rgba(71, 14, 63, 1)"></rect><path d="M-74.13 347.14L-74.13 347.14" stroke="rgba(109, 21, 97, 1)" stroke-width="1.5"></path><path d="M-74.13 347.14L109.56 388.2" stroke="rgba(109, 21, 97, 1)" stroke-width="1.5"></path><path d="M-74.13 347.14L-103.41 544.99" stroke="rgba(109, 21, 97, 1)" stroke-width="1.5"></path><path d="M-103.41 544.99L-103.41 544.99" stroke="rgba(109, 21, 97, 1)" stroke-width="1.5"></path><path d="M-103.41 544.99L-77.07 708.3" stroke="rgba(109, 21, 97, 1)" stroke-width="1.5"></path><path d="M-103.41 544.99L60.46 509.21" stroke="rgba(109, 21, 97, 1)" stroke-width="1.5"></path><path d="M-103.41 544.99L59.17 649.76" stroke="rgba(109, 21, 97, 1)" stroke-width="1.5"></path><path d="M-77.07 708.3L-77.07 708.3" stroke="rgba(109, 21, 97, 1)" stroke-width="1.5"></path><path d="M-77.07 708.3L59.17 649.76" stroke="rgba(109, 21, 97, 1)" stroke-width="1.5"></path><path d="M-77.07 708.3L60.46 509.21" stroke="rgba(109, 21, 97, 1)" stroke-width="1.5"></path><path d="M-77.07 708.3L192.72 561.26" stroke="rgba(109, 21, 97, 1)" stroke-width="1.5"></path><path d="M109.56 388.2L109.56 388.2" stroke="rgba(109, 21, 97, 1)" stroke-width="1.5"></path><path d="M109.56 388.2L60.46 509.21" stroke="rgba(109, 21, 97, 1)" stroke-width="1.5"></path><path d="M109.56 388.2L255.15 375.27" stroke="rgba(109, 21, 97, 1)" stroke-width="1.5"></path><path d="M109.56 388.2L192.72 561.26" stroke="rgba(109, 21, 97, 1)" stroke-width="1.5"></path><path d="M109.56 388.2L-103.41 544.99" stroke="rgba(109, 21, 97, 1)" stroke-width="1.5"></path><path d="M60.46 509.21L60.46 509.21" stroke="rgba(109, 21, 97, 1)" stroke-width="1.5"></path><path d="M60.46 509.21L59.17 649.76" stroke="rgba(109, 21, 97, 1)" stroke-width="1.5"></path><path d="M60.46 509.21L192.72 561.26" stroke="rgba(109, 21, 97, 1)" stroke-width="1.5"></path><path d="M60.46 509.21L-74.13 347.14" stroke="rgba(109, 21, 97, 1)" stroke-width="1.5"></path><path d="M60.46 509.21L255.15 375.27" stroke="rgba(109, 21, 97, 1)" stroke-width="1.5"></path><path d="M59.17 649.76L59.17 649.76" stroke="rgba(109, 21, 97, 1)" stroke-width="1.5"></path><path d="M59.17 649.76L192.72 561.26" stroke="rgba(109, 21, 97, 1)" stroke-width="1.5"></path><path d="M255.15 375.27L255.15 375.27" stroke="rgba(109, 21, 97, 1)" stroke-width="1.5"></path><path d="M255.15 375.27L403.03 380.39" stroke="rgba(109, 21, 97, 1)" stroke-width="1.5"></path><path d="M192.72 561.26L192.72 561.26" stroke="rgba(109, 21, 97, 1)" stroke-width="1.5"></path><path d="M192.72 561.26L244.88 676.65" stroke="rgba(109, 21, 97, 1)" stroke-width="1.5"></path><path d="M244.88 676.65L244.88 676.65" stroke="rgba(109, 21, 97, 1)" stroke-width="1.5"></path><path d="M244.88 676.65L374.35 708.65" stroke="rgba(109, 21, 97, 1)" stroke-width="1.5"></path><path d="M244.88 676.65L59.17 649.76" stroke="rgba(109, 21, 97, 1)" stroke-width="1.5"></path><path d="M244.88 676.65L400.82 541.5" stroke="rgba(109, 21, 97, 1)" stroke-width="1.5"></path><path d="M244.88 676.65L60.46 509.21" stroke="rgba(109, 21, 97, 1)" stroke-width="1.5"></path><path d="M244.88 676.65L495.3 509.85" stroke="rgba(109, 21, 97, 1)" stroke-width="1.5"></path><path d="M403.03 380.39L403.03 380.39" stroke="rgba(109, 21, 97, 1)" stroke-width="1.5"></path><path d="M403.03 380.39L507.16 403.88" stroke="rgba(109, 21, 97, 1)" stroke-width="1.5"></path><path d="M403.03 380.39L495.3 509.85" stroke="rgba(109, 21, 97, 1)" stroke-width="1.5"></path><path d="M403.03 380.39L400.82 541.5" stroke="rgba(109, 21, 97, 1)" stroke-width="1.5"></path><path d="M403.03 380.39L654.79 350.94" stroke="rgba(109, 21, 97, 1)" stroke-width="1.5"></path><path d="M400.82 541.5L400.82 541.5" stroke="rgba(109, 21, 97, 1)" stroke-width="1.5"></path><path d="M400.82 541.5L495.3 509.85" stroke="rgba(109, 21, 97, 1)" stroke-width="1.5"></path><path d="M400.82 541.5L374.35 708.65" stroke="rgba(109, 21, 97, 1)" stroke-width="1.5"></path><path d="M400.82 541.5L507.16 403.88" stroke="rgba(109, 21, 97, 1)" stroke-width="1.5"></path><path d="M400.82 541.5L192.72 561.26" stroke="rgba(109, 21, 97, 1)" stroke-width="1.5"></path><path d="M374.35 708.65L374.35 708.65" stroke="rgba(109, 21, 97, 1)" stroke-width="1.5"></path><path d="M507.16 403.88L507.16 403.88" stroke="rgba(109, 21, 97, 1)" stroke-width="1.5"></path><path d="M507.16 403.88L495.3 509.85" stroke="rgba(109, 21, 97, 1)" stroke-width="1.5"></path><path d="M507.16 403.88L654.79 350.94" stroke="rgba(109, 21, 97, 1)" stroke-width="1.5"></path><path d="M495.3 509.85L495.3 509.85" stroke="rgba(109, 21, 97, 1)" stroke-width="1.5"></path><path d="M688.68 242.94L688.68 242.94" stroke="rgba(109, 21, 97, 1)" stroke-width="1.5"></path><path d="M688.68 242.94L654.79 350.94" stroke="rgba(109, 21, 97, 1)" stroke-width="1.5"></path><path d="M688.68 242.94L802.48 207.55" stroke="rgba(109, 21, 97, 1)" stroke-width="1.5"></path><path d="M688.68 242.94L833.88 403.24" stroke="rgba(109, 21, 97, 1)" stroke-width="1.5"></path><path d="M688.68 242.94L507.16 403.88" stroke="rgba(109, 21, 97, 1)" stroke-width="1.5"></path><path d="M688.68 242.94L674.09 513.03" stroke="rgba(109, 21, 97, 1)" stroke-width="1.5"></path><path d="M688.68 242.94L403.03 380.39" stroke="rgba(109, 21, 97, 1)" stroke-width="1.5"></path><path d="M654.79 350.94L654.79 350.94" stroke="rgba(109, 21, 97, 1)" stroke-width="1.5"></path><path d="M654.79 350.94L674.09 513.03" stroke="rgba(109, 21, 97, 1)" stroke-width="1.5"></path><path d="M654.79 350.94L833.88 403.24" stroke="rgba(109, 21, 97, 1)" stroke-width="1.5"></path><path d="M654.79 350.94L802.48 207.55" stroke="rgba(109, 21, 97, 1)" stroke-width="1.5"></path><path d="M674.09 513.03L674.09 513.03" stroke="rgba(109, 21, 97, 1)" stroke-width="1.5"></path><path d="M674.09 513.03L692.95 643.2" stroke="rgba(109, 21, 97, 1)" stroke-width="1.5"></path><path d="M674.09 513.03L821.14 533.95" stroke="rgba(109, 21, 97, 1)" stroke-width="1.5"></path><path d="M692.95 643.2L692.95 643.2" stroke="rgba(109, 21, 97, 1)" stroke-width="1.5"></path><path d="M692.95 643.2L829.95 652.81" stroke="rgba(109, 21, 97, 1)" stroke-width="1.5"></path><path d="M692.95 643.2L821.14 533.95" stroke="rgba(109, 21, 97, 1)" stroke-width="1.5"></path><path d="M802.48 207.55L802.48 207.55" stroke="rgba(109, 21, 97, 1)" stroke-width="1.5"></path><path d="M802.48 207.55L833.88 403.24" stroke="rgba(109, 21, 97, 1)" stroke-width="1.5"></path><path d="M802.48 207.55L970.53 41.11" stroke="rgba(109, 21, 97, 1)" stroke-width="1.5"></path><path d="M833.88 403.24L833.88 403.24" stroke="rgba(109, 21, 97, 1)" stroke-width="1.5"></path><path d="M833.88 403.24L821.14 533.95" stroke="rgba(109, 21, 97, 1)" stroke-width="1.5"></path><path d="M833.88 403.24L944.47 498.93" stroke="rgba(109, 21, 97, 1)" stroke-width="1.5"></path><path d="M821.14 533.95L821.14 533.95" stroke="rgba(109, 21, 97, 1)" stroke-width="1.5"></path><path d="M821.14 533.95L829.95 652.81" stroke="rgba(109, 21, 97, 1)" stroke-width="1.5"></path><path d="M821.14 533.95L944.47 498.93" stroke="rgba(109, 21, 97, 1)" stroke-width="1.5"></path><path d="M821.14 533.95L654.79 350.94" stroke="rgba(109, 21, 97, 1)" stroke-width="1.5"></path><path d="M829.95 652.81L829.95 652.81" stroke="rgba(109, 21, 97, 1)" stroke-width="1.5"></path><path d="M829.95 652.81L944.47 498.93" stroke="rgba(109, 21, 97, 1)" stroke-width="1.5"></path><path d="M829.95 652.81L674.09 513.03" stroke="rgba(109, 21, 97, 1)" stroke-width="1.5"></path><path d="M964.65 -64.92L964.65 -64.92" stroke="rgba(109, 21, 97, 1)" stroke-width="1.5"></path><path d="M964.65 -64.92L970.53 41.11" stroke="rgba(109, 21, 97, 1)" stroke-width="1.5"></path><path d="M964.65 -64.92L1136.01 62.2" stroke="rgba(109, 21, 97, 1)" stroke-width="1.5"></path><path d="M964.65 -64.92L802.48 207.55" stroke="rgba(109, 21, 97, 1)" stroke-width="1.5"></path><path d="M964.65 -64.92L1284.24 -62.98" stroke="rgba(109, 21, 97, 1)" stroke-width="1.5"></path><path d="M970.53 41.11L970.53 41.11" stroke="rgba(109, 21, 97, 1)" stroke-width="1.5"></path><path d="M970.53 41.11L1136.01 62.2" stroke="rgba(109, 21, 97, 1)" stroke-width="1.5"></path><path d="M970.53 41.11L1281.58 66.77" stroke="rgba(109, 21, 97, 1)" stroke-width="1.5"></path><path d="M944.47 498.93L944.47 498.93" stroke="rgba(109, 21, 97, 1)" stroke-width="1.5"></path><path d="M944.47 498.93L1105.36 522.39" stroke="rgba(109, 21, 97, 1)" stroke-width="1.5"></path><path d="M944.47 498.93L1089.78 361.39" stroke="rgba(109, 21, 97, 1)" stroke-width="1.5"></path><path d="M1136.01 62.2L1136.01 62.2" stroke="rgba(109, 21, 97, 1)" stroke-width="1.5"></path><path d="M1136.01 62.2L1281.58 66.77" stroke="rgba(109, 21, 97, 1)" stroke-width="1.5"></path><path d="M1136.01 62.2L1246.58 207.81" stroke="rgba(109, 21, 97, 1)" stroke-width="1.5"></path><path d="M1089.78 361.39L1089.78 361.39" stroke="rgba(109, 21, 97, 1)" stroke-width="1.5"></path><path d="M1089.78 361.39L1105.36 522.39" stroke="rgba(109, 21, 97, 1)" stroke-width="1.5"></path><path d="M1089.78 361.39L1246.58 207.81" stroke="rgba(109, 21, 97, 1)" stroke-width="1.5"></path><path d="M1089.78 361.39L1310.9 369.49" stroke="rgba(109, 21, 97, 1)" stroke-width="1.5"></path><path d="M1105.36 522.39L1105.36 522.39" stroke="rgba(109, 21, 97, 1)" stroke-width="1.5"></path><path d="M1105.36 522.39L1114.97 668.22" stroke="rgba(109, 21, 97, 1)" stroke-width="1.5"></path><path d="M1114.97 668.22L1114.97 668.22" stroke="rgba(109, 21, 97, 1)" stroke-width="1.5"></path><path d="M1114.97 668.22L1276.7 694.39" stroke="rgba(109, 21, 97, 1)" stroke-width="1.5"></path><path d="M1114.97 668.22L944.47 498.93" stroke="rgba(109, 21, 97, 1)" stroke-width="1.5"></path><path d="M1114.97 668.22L1309.11 512.59" stroke="rgba(109, 21, 97, 1)" stroke-width="1.5"></path><path d="M1284.24 -62.98L1284.24 -62.98" stroke="rgba(109, 21, 97, 1)" stroke-width="1.5"></path><path d="M1284.24 -62.98L1391.24 -79.51" stroke="rgba(109, 21, 97, 1)" stroke-width="1.5"></path><path d="M1284.24 -62.98L1281.58 66.77" stroke="rgba(109, 21, 97, 1)" stroke-width="1.5"></path><path d="M1281.58 66.77L1281.58 66.77" stroke="rgba(109, 21, 97, 1)" stroke-width="1.5"></path><path d="M1281.58 66.77L1246.58 207.81" stroke="rgba(109, 21, 97, 1)" stroke-width="1.5"></path><path d="M1246.58 207.81L1246.58 207.81" stroke="rgba(109, 21, 97, 1)" stroke-width="1.5"></path><path d="M1246.58 207.81L1310.9 369.49" stroke="rgba(109, 21, 97, 1)" stroke-width="1.5"></path><path d="M1310.9 369.49L1310.9 369.49" stroke="rgba(109, 21, 97, 1)" stroke-width="1.5"></path><path d="M1310.9 369.49L1448.19 399.54" stroke="rgba(109, 21, 97, 1)" stroke-width="1.5"></path><path d="M1309.11 512.59L1309.11 512.59" stroke="rgba(109, 21, 97, 1)" stroke-width="1.5"></path><path d="M1309.11 512.59L1437.01 499.77" stroke="rgba(109, 21, 97, 1)" stroke-width="1.5"></path><path d="M1309.11 512.59L1310.9 369.49" stroke="rgba(109, 21, 97, 1)" stroke-width="1.5"></path><path d="M1309.11 512.59L1448.19 399.54" stroke="rgba(109, 21, 97, 1)" stroke-width="1.5"></path><path d="M1309.11 512.59L1276.7 694.39" stroke="rgba(109, 21, 97, 1)" stroke-width="1.5"></path><path d="M1309.11 512.59L1105.36 522.39" stroke="rgba(109, 21, 97, 1)" stroke-width="1.5"></path><path d="M1276.7 694.39L1276.7 694.39" stroke="rgba(109, 21, 97, 1)" stroke-width="1.5"></path><path d="M1391.24 -79.51L1391.24 -79.51" stroke="rgba(109, 21, 97, 1)" stroke-width="1.5"></path><path d="M1391.24 -79.51L1281.58 66.77" stroke="rgba(109, 21, 97, 1)" stroke-width="1.5"></path><path d="M1391.24 -79.51L1449.36 111.6" stroke="rgba(109, 21, 97, 1)" stroke-width="1.5"></path><path d="M1391.24 -79.51L1602.14 -54.09" stroke="rgba(109, 21, 97, 1)" stroke-width="1.5"></path><path d="M1391.24 -79.51L1571.47 64.44" stroke="rgba(109, 21, 97, 1)" stroke-width="1.5"></path><path d="M1449.36 111.6L1449.36 111.6" stroke="rgba(109, 21, 97, 1)" stroke-width="1.5"></path><path d="M1449.36 111.6L1571.47 64.44" stroke="rgba(109, 21, 97, 1)" stroke-width="1.5"></path><path d="M1449.36 111.6L1455.7 254.99" stroke="rgba(109, 21, 97, 1)" stroke-width="1.5"></path><path d="M1449.36 111.6L1281.58 66.77" stroke="rgba(109, 21, 97, 1)" stroke-width="1.5"></path><path d="M1455.7 254.99L1455.7 254.99" stroke="rgba(109, 21, 97, 1)" stroke-width="1.5"></path><path d="M1455.7 254.99L1584.68 226.04" stroke="rgba(109, 21, 97, 1)" stroke-width="1.5"></path><path d="M1455.7 254.99L1448.19 399.54" stroke="rgba(109, 21, 97, 1)" stroke-width="1.5"></path><path d="M1455.7 254.99L1565.9 354.28" stroke="rgba(109, 21, 97, 1)" stroke-width="1.5"></path><path d="M1455.7 254.99L1310.9 369.49" stroke="rgba(109, 21, 97, 1)" stroke-width="1.5"></path><path d="M1448.19 399.54L1448.19 399.54" stroke="rgba(109, 21, 97, 1)" stroke-width="1.5"></path><path d="M1448.19 399.54L1437.01 499.77" stroke="rgba(109, 21, 97, 1)" stroke-width="1.5"></path><path d="M1448.19 399.54L1565.9 354.28" stroke="rgba(109, 21, 97, 1)" stroke-width="1.5"></path><path d="M1437.01 499.77L1437.01 499.77" stroke="rgba(109, 21, 97, 1)" stroke-width="1.5"></path><path d="M1437.01 499.77L1576.83 523.33" stroke="rgba(109, 21, 97, 1)" stroke-width="1.5"></path><path d="M1437.01 499.77L1310.9 369.49" stroke="rgba(109, 21, 97, 1)" stroke-width="1.5"></path><path d="M1437.01 499.77L1565.9 354.28" stroke="rgba(109, 21, 97, 1)" stroke-width="1.5"></path><path d="M1602.14 -54.09L1602.14 -54.09" stroke="rgba(109, 21, 97, 1)" stroke-width="1.5"></path><path d="M1602.14 -54.09L1571.47 64.44" stroke="rgba(109, 21, 97, 1)" stroke-width="1.5"></path><path d="M1602.14 -54.09L1449.36 111.6" stroke="rgba(109, 21, 97, 1)" stroke-width="1.5"></path><path d="M1571.47 64.44L1571.47 64.44" stroke="rgba(109, 21, 97, 1)" stroke-width="1.5"></path><path d="M1571.47 64.44L1584.68 226.04" stroke="rgba(109, 21, 97, 1)" stroke-width="1.5"></path><path d="M1571.47 64.44L1455.7 254.99" stroke="rgba(109, 21, 97, 1)" stroke-width="1.5"></path><path d="M1584.68 226.04L1584.68 226.04" stroke="rgba(109, 21, 97, 1)" stroke-width="1.5"></path><path d="M1584.68 226.04L1565.9 354.28" stroke="rgba(109, 21, 97, 1)" stroke-width="1.5"></path><path d="M1565.9 354.28L1565.9 354.28" stroke="rgba(109, 21, 97, 1)" stroke-width="1.5"></path><path d="M1565.9 354.28L1576.83 523.33" stroke="rgba(109, 21, 97, 1)" stroke-width="1.5"></path><path d="M1576.83 523.33L1576.83 523.33" stroke="rgba(109, 21, 97, 1)" stroke-width="1.5"></path><path d="M1576.83 523.33L1575.08 694.79" stroke="rgba(109, 21, 97, 1)" stroke-width="1.5"></path><path d="M1576.83 523.33L1448.19 399.54" stroke="rgba(109, 21, 97, 1)" stroke-width="1.5"></path><path d="M1576.83 523.33L1309.11 512.59" stroke="rgba(109, 21, 97, 1)" stroke-width="1.5"></path><path d="M1575.08 694.79L1575.08 694.79" stroke="rgba(109, 21, 97, 1)" stroke-width="1.5"></path><path d="M1575.08 694.79L1437.01 499.77" stroke="rgba(109, 21, 97, 1)" stroke-width="1.5"></path><path d="M1575.08 694.79L1276.7 694.39" stroke="rgba(109, 21, 97, 1)" stroke-width="1.5"></path><path d="M1575.08 694.79L1448.19 399.54" stroke="rgba(109, 21, 97, 1)" stroke-width="1.5"></path><circle r="5" cx="-74.13" cy="347.14" fill="rgba(109, 21, 97, 1)"></circle><circle r="5" cx="-103.41" cy="544.99" fill="rgba(109, 21, 97, 1)"></circle><circle r="5" cx="-77.07" cy="708.3" fill="rgba(109, 21, 97, 1)"></circle><circle r="5" cx="109.56" cy="388.2" fill="rgba(109, 21, 97, 1)"></circle><circle r="5" cx="60.46" cy="509.21" fill="rgba(109, 21, 97, 1)"></circle><circle r="5" cx="59.17" cy="649.76" fill="rgba(109, 21, 97, 1)"></circle><circle r="5" cx="255.15" cy="375.27" fill="rgba(109, 21, 97, 1)"></circle><circle r="5" cx="192.72" cy="561.26" fill="rgba(109, 21, 97, 1)"></circle><circle r="5" cx="244.88" cy="676.65" fill="rgba(109, 21, 97, 1)"></circle><circle r="5" cx="403.03" cy="380.39" fill="rgba(109, 21, 97, 1)"></circle><circle r="5" cx="400.82" cy="541.5" fill="rgba(109, 21, 97, 1)"></circle><circle r="5" cx="374.35" cy="708.65" fill="rgba(109, 21, 97, 1)"></circle><circle r="5" cx="507.16" cy="403.88" fill="rgba(109, 21, 97, 1)"></circle><circle r="5" cx="495.3" cy="509.85" fill="rgba(109, 21, 97, 1)"></circle><circle r="5" cx="688.68" cy="242.94" fill="rgba(109, 21, 97, 1)"></circle><circle r="5" cx="654.79" cy="350.94" fill="rgba(109, 21, 97, 1)"></circle><circle r="5" cx="674.09" cy="513.03" fill="rgba(109, 21, 97, 1)"></circle><circle r="5" cx="692.95" cy="643.2" fill="rgba(109, 21, 97, 1)"></circle><circle r="5" cx="802.48" cy="207.55" fill="rgba(109, 21, 97, 1)"></circle><circle r="5" cx="833.88" cy="403.24" fill="rgba(109, 21, 97, 1)"></circle><circle r="5" cx="821.14" cy="533.95" fill="rgba(109, 21, 97, 1)"></circle><circle r="5" cx="829.95" cy="652.81" fill="rgba(109, 21, 97, 1)"></circle><circle r="5" cx="964.65" cy="-64.92" fill="rgba(109, 21, 97, 1)"></circle><circle r="5" cx="970.53" cy="41.11" fill="rgba(109, 21, 97, 1)"></circle><circle r="5" cx="944.47" cy="498.93" fill="rgba(109, 21, 97, 1)"></circle><circle r="5" cx="1136.01" cy="62.2" fill="rgba(109, 21, 97, 1)"></circle><circle r="5" cx="1089.78" cy="361.39" fill="rgba(109, 21, 97, 1)"></circle><circle r="5" cx="1105.36" cy="522.39" fill="rgba(109, 21, 97, 1)"></circle><circle r="5" cx="1114.97" cy="668.22" fill="rgba(109, 21, 97, 1)"></circle><circle r="5" cx="1284.24" cy="-62.98" fill="rgba(109, 21, 97, 1)"></circle><circle r="5" cx="1281.58" cy="66.77" fill="rgba(109, 21, 97, 1)"></circle><circle r="5" cx="1246.58" cy="207.81" fill="rgba(109, 21, 97, 1)"></circle><circle r="5" cx="1310.9" cy="369.49" fill="rgba(109, 21, 97, 1)"></circle><circle r="5" cx="1309.11" cy="512.59" fill="rgba(109, 21, 97, 1)"></circle><circle r="5" cx="1276.7" cy="694.39" fill="rgba(109, 21, 97, 1)"></circle><circle r="5" cx="1391.24" cy="-79.51" fill="rgba(109, 21, 97, 1)"></circle><circle r="5" cx="1449.36" cy="111.6" fill="rgba(109, 21, 97, 1)"></circle><circle r="5" cx="1455.7" cy="254.99" fill="rgba(109, 21, 97, 1)"></circle><circle r="5" cx="1448.19" cy="399.54" fill="rgba(109, 21, 97, 1)"></circle><circle r="5" cx="1437.01" cy="499.77" fill="rgba(109, 21, 97, 1)"></circle><circle r="5" cx="1602.14" cy="-54.09" fill="rgba(109, 21, 97, 1)"></circle><circle r="5" cx="1571.47" cy="64.44" fill="rgba(109, 21, 97, 1)"></circle><circle r="5" cx="1584.68" cy="226.04" fill="rgba(109, 21, 97, 1)"></circle><circle r="5" cx="1565.9" cy="354.28" fill="rgba(109, 21, 97, 1)"></circle><circle r="5" cx="1576.83" cy="523.33" fill="rgba(109, 21, 97, 1)"></circle><circle r="5" cx="1575.08" cy="694.79" fill="rgba(109, 21, 97, 1)"></circle><path d="M-45.3 545.38L-45.3 545.38" stroke="hsl(308.29999999999995, 78.3%, 51.7%)" stroke-width="1.5"></path><path d="M-45.3 545.38L49.54 527.31" stroke="hsl(308.29999999999995, 78.3%, 51.7%)" stroke-width="1.5"></path><path d="M-45.3 545.38L-111.16 679.93" stroke="hsl(308.29999999999995, 78.3%, 51.7%)" stroke-width="1.5"></path><path d="M-45.3 545.38L53.75 667.84" stroke="hsl(308.29999999999995, 78.3%, 51.7%)" stroke-width="1.5"></path><path d="M-45.3 545.38L233.7 511.84" stroke="hsl(308.29999999999995, 78.3%, 51.7%)" stroke-width="1.5"></path><path d="M-111.16 679.93L-111.16 679.93" stroke="hsl(308.29999999999995, 78.3%, 51.7%)" stroke-width="1.5"></path><path d="M-111.16 679.93L53.75 667.84" stroke="hsl(308.29999999999995, 78.3%, 51.7%)" stroke-width="1.5"></path><path d="M-111.16 679.93L49.54 527.31" stroke="hsl(308.29999999999995, 78.3%, 51.7%)" stroke-width="1.5"></path><path d="M372.34 540.36L372.34 540.36" stroke="hsl(308.29999999999995, 78.3%, 51.7%)" stroke-width="1.5"></path><path d="M372.34 540.36L233.7 511.84" stroke="hsl(308.29999999999995, 78.3%, 51.7%)" stroke-width="1.5"></path><path d="M372.34 540.36L522.6 490.92" stroke="hsl(308.29999999999995, 78.3%, 51.7%)" stroke-width="1.5"></path><path d="M372.34 540.36L522.05 399.5" stroke="hsl(308.29999999999995, 78.3%, 51.7%)" stroke-width="1.5"></path><path d="M531.34 675.14L531.34 675.14" stroke="hsl(308.29999999999995, 78.3%, 51.7%)" stroke-width="1.5"></path><path d="M531.34 675.14L703.21 657.1" stroke="hsl(308.29999999999995, 78.3%, 51.7%)" stroke-width="1.5"></path><path d="M531.34 675.14L522.6 490.92" stroke="hsl(308.29999999999995, 78.3%, 51.7%)" stroke-width="1.5"></path><path d="M531.34 675.14L372.34 540.36" stroke="hsl(308.29999999999995, 78.3%, 51.7%)" stroke-width="1.5"></path><path d="M531.34 675.14L684.43 523.24" stroke="hsl(308.29999999999995, 78.3%, 51.7%)" stroke-width="1.5"></path><path d="M531.34 675.14L522.05 399.5" stroke="hsl(308.29999999999995, 78.3%, 51.7%)" stroke-width="1.5"></path><path d="M531.34 675.14L823.4 709.09" stroke="hsl(308.29999999999995, 78.3%, 51.7%)" stroke-width="1.5"></path><path d="M1254.16 700.79L1254.16 700.79" stroke="hsl(308.29999999999995, 78.3%, 51.7%)" stroke-width="1.5"></path><path d="M1254.16 700.79L1162.24 696.96" stroke="hsl(308.29999999999995, 78.3%, 51.7%)" stroke-width="1.5"></path><path d="M1254.16 700.79L1410.98 669.7" stroke="hsl(308.29999999999995, 78.3%, 51.7%)" stroke-width="1.5"></path><path d="M1254.16 700.79L1260.06 526" stroke="hsl(308.29999999999995, 78.3%, 51.7%)" stroke-width="1.5"></path><path d="M1571.5 199.96L1571.5 199.96" stroke="hsl(308.29999999999995, 78.3%, 51.7%)" stroke-width="1.5"></path><path d="M1571.5 199.96L1596.59 101.06" stroke="hsl(308.29999999999995, 78.3%, 51.7%)" stroke-width="1.5"></path><path d="M1571.5 199.96L1455.54 191.66" stroke="hsl(308.29999999999995, 78.3%, 51.7%)" stroke-width="1.5"></path><path d="M1571.5 199.96L1573.49 340.87" stroke="hsl(308.29999999999995, 78.3%, 51.7%)" stroke-width="1.5"></path><path d="M1580.19 698.41L1580.19 698.41" stroke="hsl(308.29999999999995, 78.3%, 51.7%)" stroke-width="1.5"></path><path d="M1580.19 698.41L1549.37 553.4" stroke="hsl(308.29999999999995, 78.3%, 51.7%)" stroke-width="1.5"></path><path d="M1580.19 698.41L1410.98 669.7" stroke="hsl(308.29999999999995, 78.3%, 51.7%)" stroke-width="1.5"></path><path d="M1580.19 698.41L1393.84 518.46" stroke="hsl(308.29999999999995, 78.3%, 51.7%)" stroke-width="1.5"></path><path d="M49.54 527.31L49.54 527.31" stroke="hsl(308.29999999999995, 78.3%, 51.7%)" stroke-width="1.5"></path><path d="M49.54 527.31L53.75 667.84" stroke="hsl(308.29999999999995, 78.3%, 51.7%)" stroke-width="1.5"></path><path d="M49.54 527.31L233.7 511.84" stroke="hsl(308.29999999999995, 78.3%, 51.7%)" stroke-width="1.5"></path><path d="M49.54 527.31L220.47 692.07" stroke="hsl(308.29999999999995, 78.3%, 51.7%)" stroke-width="1.5"></path><path d="M49.54 527.31L372.34 540.36" stroke="hsl(308.29999999999995, 78.3%, 51.7%)" stroke-width="1.5"></path><path d="M53.75 667.84L53.75 667.84" stroke="hsl(308.29999999999995, 78.3%, 51.7%)" stroke-width="1.5"></path><path d="M53.75 667.84L220.47 692.07" stroke="hsl(308.29999999999995, 78.3%, 51.7%)" stroke-width="1.5"></path><path d="M53.75 667.84L233.7 511.84" stroke="hsl(308.29999999999995, 78.3%, 51.7%)" stroke-width="1.5"></path><path d="M53.75 667.84L372.34 540.36" stroke="hsl(308.29999999999995, 78.3%, 51.7%)" stroke-width="1.5"></path><path d="M233.7 511.84L233.7 511.84" stroke="hsl(308.29999999999995, 78.3%, 51.7%)" stroke-width="1.5"></path><path d="M233.7 511.84L220.47 692.07" stroke="hsl(308.29999999999995, 78.3%, 51.7%)" stroke-width="1.5"></path><path d="M220.47 692.07L220.47 692.07" stroke="hsl(308.29999999999995, 78.3%, 51.7%)" stroke-width="1.5"></path><path d="M220.47 692.07L372.34 540.36" stroke="hsl(308.29999999999995, 78.3%, 51.7%)" stroke-width="1.5"></path><path d="M220.47 692.07L-45.3 545.38" stroke="hsl(308.29999999999995, 78.3%, 51.7%)" stroke-width="1.5"></path><path d="M220.47 692.07L531.34 675.14" stroke="hsl(308.29999999999995, 78.3%, 51.7%)" stroke-width="1.5"></path><path d="M522.05 399.5L522.05 399.5" stroke="hsl(308.29999999999995, 78.3%, 51.7%)" stroke-width="1.5"></path><path d="M522.05 399.5L522.6 490.92" stroke="hsl(308.29999999999995, 78.3%, 51.7%)" stroke-width="1.5"></path><path d="M522.05 399.5L684.43 523.24" stroke="hsl(308.29999999999995, 78.3%, 51.7%)" stroke-width="1.5"></path><path d="M522.05 399.5L811.59 353.23" stroke="hsl(308.29999999999995, 78.3%, 51.7%)" stroke-width="1.5"></path><path d="M522.05 399.5L233.7 511.84" stroke="hsl(308.29999999999995, 78.3%, 51.7%)" stroke-width="1.5"></path><path d="M522.6 490.92L522.6 490.92" stroke="hsl(308.29999999999995, 78.3%, 51.7%)" stroke-width="1.5"></path><path d="M522.6 490.92L684.43 523.24" stroke="hsl(308.29999999999995, 78.3%, 51.7%)" stroke-width="1.5"></path><path d="M522.6 490.92L703.21 657.1" stroke="hsl(308.29999999999995, 78.3%, 51.7%)" stroke-width="1.5"></path><path d="M684.43 523.24L684.43 523.24" stroke="hsl(308.29999999999995, 78.3%, 51.7%)" stroke-width="1.5"></path><path d="M684.43 523.24L703.21 657.1" stroke="hsl(308.29999999999995, 78.3%, 51.7%)" stroke-width="1.5"></path><path d="M684.43 523.24L846.08 512.25" stroke="hsl(308.29999999999995, 78.3%, 51.7%)" stroke-width="1.5"></path><path d="M684.43 523.24L811.59 353.23" stroke="hsl(308.29999999999995, 78.3%, 51.7%)" stroke-width="1.5"></path><path d="M703.21 657.1L703.21 657.1" stroke="hsl(308.29999999999995, 78.3%, 51.7%)" stroke-width="1.5"></path><path d="M703.21 657.1L823.4 709.09" stroke="hsl(308.29999999999995, 78.3%, 51.7%)" stroke-width="1.5"></path><path d="M811.59 353.23L811.59 353.23" stroke="hsl(308.29999999999995, 78.3%, 51.7%)" stroke-width="1.5"></path><path d="M811.59 353.23L846.08 512.25" stroke="hsl(308.29999999999995, 78.3%, 51.7%)" stroke-width="1.5"></path><path d="M811.59 353.23L993.74 546.14" stroke="hsl(308.29999999999995, 78.3%, 51.7%)" stroke-width="1.5"></path><path d="M811.59 353.23L1095.48 387.28" stroke="hsl(308.29999999999995, 78.3%, 51.7%)" stroke-width="1.5"></path><path d="M846.08 512.25L846.08 512.25" stroke="hsl(308.29999999999995, 78.3%, 51.7%)" stroke-width="1.5"></path><path d="M846.08 512.25L993.74 546.14" stroke="hsl(308.29999999999995, 78.3%, 51.7%)" stroke-width="1.5"></path><path d="M823.4 709.09L823.4 709.09" stroke="hsl(308.29999999999995, 78.3%, 51.7%)" stroke-width="1.5"></path><path d="M823.4 709.09L988.65 676.22" stroke="hsl(308.29999999999995, 78.3%, 51.7%)" stroke-width="1.5"></path><path d="M823.4 709.09L846.08 512.25" stroke="hsl(308.29999999999995, 78.3%, 51.7%)" stroke-width="1.5"></path><path d="M993.74 546.14L993.74 546.14" stroke="hsl(308.29999999999995, 78.3%, 51.7%)" stroke-width="1.5"></path><path d="M993.74 546.14L988.65 676.22" stroke="hsl(308.29999999999995, 78.3%, 51.7%)" stroke-width="1.5"></path><path d="M993.74 546.14L1144.33 494" stroke="hsl(308.29999999999995, 78.3%, 51.7%)" stroke-width="1.5"></path><path d="M993.74 546.14L1095.48 387.28" stroke="hsl(308.29999999999995, 78.3%, 51.7%)" stroke-width="1.5"></path><path d="M993.74 546.14L1162.24 696.96" stroke="hsl(308.29999999999995, 78.3%, 51.7%)" stroke-width="1.5"></path><path d="M993.74 546.14L823.4 709.09" stroke="hsl(308.29999999999995, 78.3%, 51.7%)" stroke-width="1.5"></path><path d="M988.65 676.22L988.65 676.22" stroke="hsl(308.29999999999995, 78.3%, 51.7%)" stroke-width="1.5"></path><path d="M988.65 676.22L1162.24 696.96" stroke="hsl(308.29999999999995, 78.3%, 51.7%)" stroke-width="1.5"></path><path d="M988.65 676.22L846.08 512.25" stroke="hsl(308.29999999999995, 78.3%, 51.7%)" stroke-width="1.5"></path><path d="M988.65 676.22L1144.33 494" stroke="hsl(308.29999999999995, 78.3%, 51.7%)" stroke-width="1.5"></path><path d="M1096.7 242.33L1096.7 242.33" stroke="hsl(308.29999999999995, 78.3%, 51.7%)" stroke-width="1.5"></path><path d="M1096.7 242.33L1095.48 387.28" stroke="hsl(308.29999999999995, 78.3%, 51.7%)" stroke-width="1.5"></path><path d="M1096.7 242.33L1246.96 254.17" stroke="hsl(308.29999999999995, 78.3%, 51.7%)" stroke-width="1.5"></path><path d="M1096.7 242.33L1280.44 407.78" stroke="hsl(308.29999999999995, 78.3%, 51.7%)" stroke-width="1.5"></path><path d="M1096.7 242.33L1144.33 494" stroke="hsl(308.29999999999995, 78.3%, 51.7%)" stroke-width="1.5"></path><path d="M1096.7 242.33L1297.4 53.21" stroke="hsl(308.29999999999995, 78.3%, 51.7%)" stroke-width="1.5"></path><path d="M1095.48 387.28L1095.48 387.28" stroke="hsl(308.29999999999995, 78.3%, 51.7%)" stroke-width="1.5"></path><path d="M1095.48 387.28L1144.33 494" stroke="hsl(308.29999999999995, 78.3%, 51.7%)" stroke-width="1.5"></path><path d="M1095.48 387.28L1280.44 407.78" stroke="hsl(308.29999999999995, 78.3%, 51.7%)" stroke-width="1.5"></path><path d="M1095.48 387.28L1246.96 254.17" stroke="hsl(308.29999999999995, 78.3%, 51.7%)" stroke-width="1.5"></path><path d="M1095.48 387.28L1260.06 526" stroke="hsl(308.29999999999995, 78.3%, 51.7%)" stroke-width="1.5"></path><path d="M1144.33 494L1144.33 494" stroke="hsl(308.29999999999995, 78.3%, 51.7%)" stroke-width="1.5"></path><path d="M1144.33 494L1260.06 526" stroke="hsl(308.29999999999995, 78.3%, 51.7%)" stroke-width="1.5"></path><path d="M1144.33 494L1280.44 407.78" stroke="hsl(308.29999999999995, 78.3%, 51.7%)" stroke-width="1.5"></path><path d="M1144.33 494L1162.24 696.96" stroke="hsl(308.29999999999995, 78.3%, 51.7%)" stroke-width="1.5"></path><path d="M1144.33 494L1254.16 700.79" stroke="hsl(308.29999999999995, 78.3%, 51.7%)" stroke-width="1.5"></path><path d="M1162.24 696.96L1162.24 696.96" stroke="hsl(308.29999999999995, 78.3%, 51.7%)" stroke-width="1.5"></path><path d="M1162.24 696.96L1260.06 526" stroke="hsl(308.29999999999995, 78.3%, 51.7%)" stroke-width="1.5"></path><path d="M1296.48 -60.41L1296.48 -60.41" stroke="hsl(308.29999999999995, 78.3%, 51.7%)" stroke-width="1.5"></path><path d="M1296.48 -60.41L1297.4 53.21" stroke="hsl(308.29999999999995, 78.3%, 51.7%)" stroke-width="1.5"></path><path d="M1296.48 -60.41L1435.8 -45.85" stroke="hsl(308.29999999999995, 78.3%, 51.7%)" stroke-width="1.5"></path><path d="M1296.48 -60.41L1437.13 99.23" stroke="hsl(308.29999999999995, 78.3%, 51.7%)" stroke-width="1.5"></path><path d="M1296.48 -60.41L1552.83 -99.79" stroke="hsl(308.29999999999995, 78.3%, 51.7%)" stroke-width="1.5"></path><path d="M1297.4 53.21L1297.4 53.21" stroke="hsl(308.29999999999995, 78.3%, 51.7%)" stroke-width="1.5"></path><path d="M1297.4 53.21L1437.13 99.23" stroke="hsl(308.29999999999995, 78.3%, 51.7%)" stroke-width="1.5"></path><path d="M1297.4 53.21L1435.8 -45.85" stroke="hsl(308.29999999999995, 78.3%, 51.7%)" stroke-width="1.5"></path><path d="M1297.4 53.21L1246.96 254.17" stroke="hsl(308.29999999999995, 78.3%, 51.7%)" stroke-width="1.5"></path><path d="M1297.4 53.21L1455.54 191.66" stroke="hsl(308.29999999999995, 78.3%, 51.7%)" stroke-width="1.5"></path><path d="M1246.96 254.17L1246.96 254.17" stroke="hsl(308.29999999999995, 78.3%, 51.7%)" stroke-width="1.5"></path><path d="M1246.96 254.17L1280.44 407.78" stroke="hsl(308.29999999999995, 78.3%, 51.7%)" stroke-width="1.5"></path><path d="M1246.96 254.17L1418.08 363.04" stroke="hsl(308.29999999999995, 78.3%, 51.7%)" stroke-width="1.5"></path><path d="M1280.44 407.78L1280.44 407.78" stroke="hsl(308.29999999999995, 78.3%, 51.7%)" stroke-width="1.5"></path><path d="M1280.44 407.78L1260.06 526" stroke="hsl(308.29999999999995, 78.3%, 51.7%)" stroke-width="1.5"></path><path d="M1280.44 407.78L1418.08 363.04" stroke="hsl(308.29999999999995, 78.3%, 51.7%)" stroke-width="1.5"></path><path d="M1280.44 407.78L1393.84 518.46" stroke="hsl(308.29999999999995, 78.3%, 51.7%)" stroke-width="1.5"></path><path d="M1260.06 526L1260.06 526" stroke="hsl(308.29999999999995, 78.3%, 51.7%)" stroke-width="1.5"></path><path d="M1260.06 526L1393.84 518.46" stroke="hsl(308.29999999999995, 78.3%, 51.7%)" stroke-width="1.5"></path><path d="M1260.06 526L1410.98 669.7" stroke="hsl(308.29999999999995, 78.3%, 51.7%)" stroke-width="1.5"></path><path d="M1435.8 -45.85L1435.8 -45.85" stroke="hsl(308.29999999999995, 78.3%, 51.7%)" stroke-width="1.5"></path><path d="M1435.8 -45.85L1552.83 -99.79" stroke="hsl(308.29999999999995, 78.3%, 51.7%)" stroke-width="1.5"></path><path d="M1435.8 -45.85L1437.13 99.23" stroke="hsl(308.29999999999995, 78.3%, 51.7%)" stroke-width="1.5"></path><path d="M1437.13 99.23L1437.13 99.23" stroke="hsl(308.29999999999995, 78.3%, 51.7%)" stroke-width="1.5"></path><path d="M1437.13 99.23L1455.54 191.66" stroke="hsl(308.29999999999995, 78.3%, 51.7%)" stroke-width="1.5"></path><path d="M1437.13 99.23L1596.59 101.06" stroke="hsl(308.29999999999995, 78.3%, 51.7%)" stroke-width="1.5"></path><path d="M1437.13 99.23L1571.5 199.96" stroke="hsl(308.29999999999995, 78.3%, 51.7%)" stroke-width="1.5"></path><path d="M1455.54 191.66L1455.54 191.66" stroke="hsl(308.29999999999995, 78.3%, 51.7%)" stroke-width="1.5"></path><path d="M1455.54 191.66L1596.59 101.06" stroke="hsl(308.29999999999995, 78.3%, 51.7%)" stroke-width="1.5"></path><path d="M1455.54 191.66L1418.08 363.04" stroke="hsl(308.29999999999995, 78.3%, 51.7%)" stroke-width="1.5"></path><path d="M1418.08 363.04L1418.08 363.04" stroke="hsl(308.29999999999995, 78.3%, 51.7%)" stroke-width="1.5"></path><path d="M1418.08 363.04L1573.49 340.87" stroke="hsl(308.29999999999995, 78.3%, 51.7%)" stroke-width="1.5"></path><path d="M1418.08 363.04L1393.84 518.46" stroke="hsl(308.29999999999995, 78.3%, 51.7%)" stroke-width="1.5"></path><path d="M1393.84 518.46L1393.84 518.46" stroke="hsl(308.29999999999995, 78.3%, 51.7%)" stroke-width="1.5"></path><path d="M1410.98 669.7L1410.98 669.7" stroke="hsl(308.29999999999995, 78.3%, 51.7%)" stroke-width="1.5"></path><path d="M1410.98 669.7L1393.84 518.46" stroke="hsl(308.29999999999995, 78.3%, 51.7%)" stroke-width="1.5"></path><path d="M1410.98 669.7L1549.37 553.4" stroke="hsl(308.29999999999995, 78.3%, 51.7%)" stroke-width="1.5"></path><path d="M1552.83 -99.79L1552.83 -99.79" stroke="hsl(308.29999999999995, 78.3%, 51.7%)" stroke-width="1.5"></path><path d="M1552.83 -99.79L1596.59 101.06" stroke="hsl(308.29999999999995, 78.3%, 51.7%)" stroke-width="1.5"></path><path d="M1552.83 -99.79L1437.13 99.23" stroke="hsl(308.29999999999995, 78.3%, 51.7%)" stroke-width="1.5"></path><path d="M1552.83 -99.79L1297.4 53.21" stroke="hsl(308.29999999999995, 78.3%, 51.7%)" stroke-width="1.5"></path><path d="M1596.59 101.06L1596.59 101.06" stroke="hsl(308.29999999999995, 78.3%, 51.7%)" stroke-width="1.5"></path><path d="M1573.49 340.87L1573.49 340.87" stroke="hsl(308.29999999999995, 78.3%, 51.7%)" stroke-width="1.5"></path><path d="M1549.37 553.4L1549.37 553.4" stroke="hsl(308.29999999999995, 78.3%, 51.7%)" stroke-width="1.5"></path><path d="M1549.37 553.4L1393.84 518.46" stroke="hsl(308.29999999999995, 78.3%, 51.7%)" stroke-width="1.5"></path><circle r="25" cx="-45.3" cy="545.38" fill="url(&quot;#SvgjsRadialGradient1007&quot;)"></circle><circle r="25" cx="-111.16" cy="679.93" fill="url(&quot;#SvgjsRadialGradient1007&quot;)"></circle><circle r="25" cx="372.34" cy="540.36" fill="url(&quot;#SvgjsRadialGradient1007&quot;)"></circle><circle r="25" cx="531.34" cy="675.14" fill="url(&quot;#SvgjsRadialGradient1007&quot;)"></circle><circle r="25" cx="1254.16" cy="700.79" fill="url(&quot;#SvgjsRadialGradient1007&quot;)"></circle><circle r="25" cx="1571.5" cy="199.96" fill="url(&quot;#SvgjsRadialGradient1007&quot;)"></circle><circle r="25" cx="1580.19" cy="698.41" fill="url(&quot;#SvgjsRadialGradient1007&quot;)"></circle><circle r="5" cx="49.54" cy="527.31" fill="#da8bcf"></circle><circle r="5" cx="53.75" cy="667.84" fill="#da8bcf"></circle><circle r="5" cx="233.7" cy="511.84" fill="#da8bcf"></circle><circle r="5" cx="220.47" cy="692.07" fill="#da8bcf"></circle><circle r="5" cx="522.05" cy="399.5" fill="#da8bcf"></circle><circle r="5" cx="522.6" cy="490.92" fill="#da8bcf"></circle><circle r="5" cx="684.43" cy="523.24" fill="#da8bcf"></circle><circle r="5" cx="703.21" cy="657.1" fill="#da8bcf"></circle><circle r="5" cx="811.59" cy="353.23" fill="#da8bcf"></circle><circle r="5" cx="846.08" cy="512.25" fill="#da8bcf"></circle><circle r="5" cx="823.4" cy="709.09" fill="#da8bcf"></circle><circle r="5" cx="993.74" cy="546.14" fill="#da8bcf"></circle><circle r="5" cx="988.65" cy="676.22" fill="#da8bcf"></circle><circle r="5" cx="1096.7" cy="242.33" fill="#da8bcf"></circle><circle r="5" cx="1095.48" cy="387.28" fill="#da8bcf"></circle><circle r="5" cx="1144.33" cy="494" fill="#da8bcf"></circle><circle r="5" cx="1162.24" cy="696.96" fill="#da8bcf"></circle><circle r="5" cx="1296.48" cy="-60.41" fill="#da8bcf"></circle><circle r="5" cx="1297.4" cy="53.21" fill="#da8bcf"></circle><circle r="5" cx="1246.96" cy="254.17" fill="#da8bcf"></circle><circle r="5" cx="1280.44" cy="407.78" fill="#da8bcf"></circle><circle r="5" cx="1260.06" cy="526" fill="#da8bcf"></circle><circle r="5" cx="1435.8" cy="-45.85" fill="#da8bcf"></circle><circle r="5" cx="1437.13" cy="99.23" fill="#da8bcf"></circle><circle r="5" cx="1455.54" cy="191.66" fill="#da8bcf"></circle><circle r="5" cx="1418.08" cy="363.04" fill="#da8bcf"></circle><circle r="5" cx="1393.84" cy="518.46" fill="#da8bcf"></circle><circle r="5" cx="1410.98" cy="669.7" fill="#da8bcf"></circle><circle r="5" cx="1552.83" cy="-99.79" fill="#da8bcf"></circle><circle r="5" cx="1596.59" cy="101.06" fill="#da8bcf"></circle><circle r="5" cx="1573.49" cy="340.87" fill="#da8bcf"></circle><circle r="5" cx="1549.37" cy="553.4" fill="#da8bcf"></circle></g><defs><mask id="SvgjsMask1006"><rect width="1440" height="560" fill="#ffffff"></rect></mask><radialGradient id="SvgjsRadialGradient1007"><stop stop-color="#ffffff" offset="0.1"></stop><stop stop-color="rgba(181, 22, 159, 1)" offset="0.2"></stop><stop stop-color="rgba(181, 22, 159, 0)" offset="1"></stop></radialGradient></defs></svg>